<?xml version="1.0" encoding="UTF-8" standalone="no"?>
<!-- Created with Inkscape (http://www.inkscape.org/) -->

<svg
   xmlns:dc="http://purl.org/dc/elements/1.1/"
   xmlns:cc="http://creativecommons.org/ns#"
   xmlns:rdf="http://www.w3.org/1999/02/22-rdf-syntax-ns#"
   xmlns:svg="http://www.w3.org/2000/svg"
   xmlns="http://www.w3.org/2000/svg"
   xmlns:sodipodi="http://sodipodi.sourceforge.net/DTD/sodipodi-0.dtd"
   xmlns:inkscape="http://www.inkscape.org/namespaces/inkscape"
   version="1.1"
   id="svg2"
   xml:space="preserve"
   width="194.85072"
   height="254.2139"
   viewBox="0 0 194.85072 254.2139"
   sodipodi:docname="FPKM-by-Peak-Violin-Plots-CROP-A.svg"
   inkscape:version="0.92.2 5c3e80d, 2017-08-06"><metadata
     id="metadata8"><rdf:RDF><cc:Work
         rdf:about=""><dc:format>image/svg+xml</dc:format><dc:type
           rdf:resource="http://purl.org/dc/dcmitype/StillImage" /><dc:title></dc:title></cc:Work></rdf:RDF></metadata><defs
     id="defs6"><clipPath
       clipPathUnits="userSpaceOnUse"
       id="clipPath20"><path
         d="M 0,0 H 864 V 576 H 0 Z"
         id="path18"
         inkscape:connector-curvature="0" /></clipPath><clipPath
       clipPathUnits="userSpaceOnUse"
       id="clipPath40"><path
         d="m 47.06,529.97 h 95.37 v 14.38 H 47.06 Z"
         id="path38"
         inkscape:connector-curvature="0" /></clipPath><clipPath
       clipPathUnits="userSpaceOnUse"
       id="clipPath56"><path
         d="m 146.03,529.97 h 95.37 v 14.38 h -95.37 z"
         id="path54"
         inkscape:connector-curvature="0" /></clipPath><clipPath
       clipPathUnits="userSpaceOnUse"
       id="clipPath72"><path
         d="m 245,529.97 h 95.37 v 14.38 H 245 Z"
         id="path70"
         inkscape:connector-curvature="0" /></clipPath><clipPath
       clipPathUnits="userSpaceOnUse"
       id="clipPath88"><path
         d="m 343.97,529.97 h 95.37 v 14.38 h -95.37 z"
         id="path86"
         inkscape:connector-curvature="0" /></clipPath><clipPath
       clipPathUnits="userSpaceOnUse"
       id="clipPath104"><path
         d="m 442.94,529.97 h 95.37 v 14.38 h -95.37 z"
         id="path102"
         inkscape:connector-curvature="0" /></clipPath><clipPath
       clipPathUnits="userSpaceOnUse"
       id="clipPath120"><path
         d="m 541.91,529.97 h 95.37 v 14.38 h -95.37 z"
         id="path118"
         inkscape:connector-curvature="0" /></clipPath><clipPath
       clipPathUnits="userSpaceOnUse"
       id="clipPath136"><path
         d="m 640.88,529.97 h 95.37 v 14.38 h -95.37 z"
         id="path134"
         inkscape:connector-curvature="0" /></clipPath><clipPath
       clipPathUnits="userSpaceOnUse"
       id="clipPath152"><path
         d="m 739.85,529.97 h 95.37 v 14.38 h -95.37 z"
         id="path150"
         inkscape:connector-curvature="0" /></clipPath><clipPath
       clipPathUnits="userSpaceOnUse"
       id="clipPath168"><path
         d="m 47.06,368.14 h 95.37 V 529.97 H 47.06 Z"
         id="path166"
         inkscape:connector-curvature="0" /></clipPath><clipPath
       clipPathUnits="userSpaceOnUse"
       id="clipPath200"><path
         d="m 47.06,202.71 h 95.37 V 364.54 H 47.06 Z"
         id="path198"
         inkscape:connector-curvature="0" /></clipPath><clipPath
       clipPathUnits="userSpaceOnUse"
       id="clipPath232"><path
         d="m 47.06,37.28 h 95.37 V 199.11 H 47.06 Z"
         id="path230"
         inkscape:connector-curvature="0" /></clipPath><clipPath
       clipPathUnits="userSpaceOnUse"
       id="clipPath264"><path
         d="M 146.03,368.14 H 241.4 V 529.97 H 146.03 Z"
         id="path262"
         inkscape:connector-curvature="0" /></clipPath><clipPath
       clipPathUnits="userSpaceOnUse"
       id="clipPath296"><path
         d="M 146.03,202.71 H 241.4 V 364.54 H 146.03 Z"
         id="path294"
         inkscape:connector-curvature="0" /></clipPath><clipPath
       clipPathUnits="userSpaceOnUse"
       id="clipPath328"><path
         d="M 146.03,37.28 H 241.4 V 199.11 H 146.03 Z"
         id="path326"
         inkscape:connector-curvature="0" /></clipPath><clipPath
       clipPathUnits="userSpaceOnUse"
       id="clipPath360"><path
         d="m 245,368.14 h 95.37 V 529.97 H 245 Z"
         id="path358"
         inkscape:connector-curvature="0" /></clipPath><clipPath
       clipPathUnits="userSpaceOnUse"
       id="clipPath392"><path
         d="m 245,202.71 h 95.37 V 364.54 H 245 Z"
         id="path390"
         inkscape:connector-curvature="0" /></clipPath><clipPath
       clipPathUnits="userSpaceOnUse"
       id="clipPath424"><path
         d="m 245,37.28 h 95.37 V 199.11 H 245 Z"
         id="path422"
         inkscape:connector-curvature="0" /></clipPath><clipPath
       clipPathUnits="userSpaceOnUse"
       id="clipPath456"><path
         d="m 343.97,368.14 h 95.37 v 161.83 h -95.37 z"
         id="path454"
         inkscape:connector-curvature="0" /></clipPath><clipPath
       clipPathUnits="userSpaceOnUse"
       id="clipPath488"><path
         d="m 343.97,202.71 h 95.37 v 161.83 h -95.37 z"
         id="path486"
         inkscape:connector-curvature="0" /></clipPath><clipPath
       clipPathUnits="userSpaceOnUse"
       id="clipPath520"><path
         d="m 343.97,37.28 h 95.37 v 161.83 h -95.37 z"
         id="path518"
         inkscape:connector-curvature="0" /></clipPath><clipPath
       clipPathUnits="userSpaceOnUse"
       id="clipPath552"><path
         d="m 442.94,368.14 h 95.37 v 161.83 h -95.37 z"
         id="path550"
         inkscape:connector-curvature="0" /></clipPath><clipPath
       clipPathUnits="userSpaceOnUse"
       id="clipPath584"><path
         d="m 442.94,202.71 h 95.37 v 161.83 h -95.37 z"
         id="path582"
         inkscape:connector-curvature="0" /></clipPath><clipPath
       clipPathUnits="userSpaceOnUse"
       id="clipPath616"><path
         d="m 442.94,37.28 h 95.37 v 161.83 h -95.37 z"
         id="path614"
         inkscape:connector-curvature="0" /></clipPath><clipPath
       clipPathUnits="userSpaceOnUse"
       id="clipPath648"><path
         d="m 541.91,368.14 h 95.37 v 161.83 h -95.37 z"
         id="path646"
         inkscape:connector-curvature="0" /></clipPath><clipPath
       clipPathUnits="userSpaceOnUse"
       id="clipPath680"><path
         d="m 541.91,202.71 h 95.37 v 161.83 h -95.37 z"
         id="path678"
         inkscape:connector-curvature="0" /></clipPath><clipPath
       clipPathUnits="userSpaceOnUse"
       id="clipPath712"><path
         d="m 541.91,37.28 h 95.37 v 161.83 h -95.37 z"
         id="path710"
         inkscape:connector-curvature="0" /></clipPath><clipPath
       clipPathUnits="userSpaceOnUse"
       id="clipPath744"><path
         d="m 640.88,368.14 h 95.37 v 161.83 h -95.37 z"
         id="path742"
         inkscape:connector-curvature="0" /></clipPath><clipPath
       clipPathUnits="userSpaceOnUse"
       id="clipPath776"><path
         d="m 640.88,202.71 h 95.37 v 161.83 h -95.37 z"
         id="path774"
         inkscape:connector-curvature="0" /></clipPath><clipPath
       clipPathUnits="userSpaceOnUse"
       id="clipPath808"><path
         d="m 640.88,37.28 h 95.37 v 161.83 h -95.37 z"
         id="path806"
         inkscape:connector-curvature="0" /></clipPath><clipPath
       clipPathUnits="userSpaceOnUse"
       id="clipPath840"><path
         d="m 739.85,368.14 h 95.37 v 161.83 h -95.37 z"
         id="path838"
         inkscape:connector-curvature="0" /></clipPath><clipPath
       clipPathUnits="userSpaceOnUse"
       id="clipPath872"><path
         d="m 739.85,202.71 h 95.37 v 161.83 h -95.37 z"
         id="path870"
         inkscape:connector-curvature="0" /></clipPath><clipPath
       clipPathUnits="userSpaceOnUse"
       id="clipPath904"><path
         d="m 739.85,37.28 h 95.37 v 161.83 h -95.37 z"
         id="path902"
         inkscape:connector-curvature="0" /></clipPath><clipPath
       clipPathUnits="userSpaceOnUse"
       id="clipPath1038"><path
         d="M 835.22,368.14 H 849.6 V 529.97 H 835.22 Z"
         id="path1036"
         inkscape:connector-curvature="0" /></clipPath><clipPath
       clipPathUnits="userSpaceOnUse"
       id="clipPath1054"><path
         d="M 835.22,202.71 H 849.6 V 364.54 H 835.22 Z"
         id="path1052"
         inkscape:connector-curvature="0" /></clipPath><clipPath
       clipPathUnits="userSpaceOnUse"
       id="clipPath1070"><path
         d="M 835.22,37.28 H 849.6 V 199.11 H 835.22 Z"
         id="path1068"
         inkscape:connector-curvature="0" /></clipPath></defs><sodipodi:namedview
     pagecolor="#ffffff"
     bordercolor="#666666"
     borderopacity="1"
     objecttolerance="10"
     gridtolerance="10"
     guidetolerance="10"
     inkscape:pageopacity="0"
     inkscape:pageshadow="2"
     inkscape:window-width="1920"
     inkscape:window-height="1035"
     id="namedview4"
     showgrid="false"
     inkscape:zoom="0.91189727"
     inkscape:cx="-337.05923"
     inkscape:cy="-64.785087"
     inkscape:window-x="0"
     inkscape:window-y="1"
     inkscape:window-maximized="1"
     inkscape:current-layer="layer1"
     fit-margin-top="0"
     fit-margin-left="0"
     fit-margin-right="0"
     fit-margin-bottom="0" /><g
     inkscape:groupmode="layer"
     id="layer1"
     inkscape:label="Above"
     style="display:inline"
     transform="translate(-924.61592,-19.533348)"><g
       id="g146"
       transform="matrix(1.3333333,0,0,-1.3333333,-13.333333,745.33333)"><g
         clip-path="url(#clipPath152)"
         id="g148"><path
           inkscape:connector-curvature="0"
           id="path154"
           style="fill:#cccccc;fill-opacity:1;fill-rule:nonzero;stroke:none"
           d="m 739.85,529.97 h 95.37 v 14.38 h -95.37 z" /><text
           id="text158"
           style="font-variant:normal;font-weight:normal;font-size:10px;font-family:Helvetica;-inkscape-font-specification:Helvetica;writing-mode:lr-tb;fill:#000000;fill-opacity:1;fill-rule:nonzero;stroke:none"
           transform="matrix(1,0,0,-1,758.77,533.57)"><tspan
             id="tspan156"
             sodipodi:role="line"
             y="0"
             x="0 8.3299999 13.89 22.219999 27.780001 31.41 36.41 39.189999 46.41 51.970001">Memory.D14</tspan></text>
</g></g><g
       id="g834"
       transform="matrix(1.3333333,0,0,-1.3333333,-13.333333,745.33333)"><g
         clip-path="url(#clipPath840)"
         id="g836"><path
           inkscape:connector-curvature="0"
           id="path842"
           style="fill:#e5e5e5;fill-opacity:1;fill-rule:nonzero;stroke:none"
           d="m 739.85,368.14 h 95.37 v 161.83 h -95.37 z" /><path
           inkscape:connector-curvature="0"
           id="path844"
           style="fill:none;stroke:#f2f2f2;stroke-width:0.52999997;stroke-linecap:butt;stroke-linejoin:round;stroke-miterlimit:10;stroke-dasharray:none;stroke-opacity:1"
           d="m 739.85,407.31 h 95.37" /><path
           inkscape:connector-curvature="0"
           id="path846"
           style="fill:none;stroke:#f2f2f2;stroke-width:0.52999997;stroke-linecap:butt;stroke-linejoin:round;stroke-miterlimit:10;stroke-dasharray:none;stroke-opacity:1"
           d="m 739.85,459.04 h 95.37" /><path
           inkscape:connector-curvature="0"
           id="path848"
           style="fill:none;stroke:#f2f2f2;stroke-width:0.52999997;stroke-linecap:butt;stroke-linejoin:round;stroke-miterlimit:10;stroke-dasharray:none;stroke-opacity:1"
           d="m 739.85,510.78 h 95.37" /><path
           inkscape:connector-curvature="0"
           id="path850"
           style="fill:none;stroke:#ffffff;stroke-width:1.05999994;stroke-linecap:butt;stroke-linejoin:round;stroke-miterlimit:10;stroke-dasharray:none;stroke-opacity:1"
           d="m 739.85,381.44 h 95.37" /><path
           inkscape:connector-curvature="0"
           id="path852"
           style="fill:none;stroke:#ffffff;stroke-width:1.05999994;stroke-linecap:butt;stroke-linejoin:round;stroke-miterlimit:10;stroke-dasharray:none;stroke-opacity:1"
           d="m 739.85,433.18 h 95.37" /><path
           inkscape:connector-curvature="0"
           id="path854"
           style="fill:none;stroke:#ffffff;stroke-width:1.05999994;stroke-linecap:butt;stroke-linejoin:round;stroke-miterlimit:10;stroke-dasharray:none;stroke-opacity:1"
           d="m 739.85,484.91 h 95.37" /><path
           inkscape:connector-curvature="0"
           id="path856"
           style="fill:none;stroke:#ffffff;stroke-width:1.05999994;stroke-linecap:butt;stroke-linejoin:round;stroke-miterlimit:10;stroke-dasharray:none;stroke-opacity:1"
           d="M 765.86,368.14 V 529.97" /><path
           inkscape:connector-curvature="0"
           id="path858"
           style="fill:none;stroke:#ffffff;stroke-width:1.05999994;stroke-linecap:butt;stroke-linejoin:round;stroke-miterlimit:10;stroke-dasharray:none;stroke-opacity:1"
           d="M 809.21,368.14 V 529.97" /><path
           inkscape:connector-curvature="0"
           id="path860"
           style="fill:#ffffff;fill-opacity:1;fill-rule:nonzero;stroke:#333333;stroke-width:1.05999994;stroke-linecap:round;stroke-linejoin:round;stroke-miterlimit:10;stroke-dasharray:none;stroke-opacity:1"
           d="m 765.58,375.74 -0.1,0.77 -0.14,0.76 -0.17,0.77 -0.22,0.77 -0.27,0.76 -0.33,0.77 -0.39,0.77 -0.46,0.77 -0.54,0.76 -0.62,0.77 -0.71,0.77 -0.78,0.76 -0.85,0.77 -0.89,0.77 -0.92,0.77 -0.91,0.76 -0.87,0.77 -0.79,0.77 -0.68,0.76 -0.55,0.77 -0.4,0.77 -0.27,0.77 -0.15,0.76 -0.05,0.77 0.04,0.77 0.08,0.76 0.12,0.77 0.13,0.77 0.13,0.76 0.12,0.77 0.11,0.77 0.1,0.77 0.06,0.76 0.05,0.77 0.04,0.77 0.03,0.76 0.03,0.77 0.06,0.77 0.07,0.77 0.08,0.76 0.09,0.77 0.07,0.77 0.05,0.76 0.01,0.77 -0.04,0.77 -0.09,0.76 -0.13,0.77 -0.17,0.77 -0.18,0.77 -0.18,0.76 -0.14,0.77 -0.09,0.77 -0.02,0.76 0.07,0.77 0.17,0.77 0.26,0.77 0.32,0.76 0.37,0.77 0.39,0.77 0.39,0.76 0.36,0.77 0.33,0.77 0.28,0.77 0.26,0.76 0.24,0.77 0.24,0.77 0.25,0.76 0.27,0.77 0.28,0.77 0.3,0.76 0.31,0.77 0.31,0.77 0.31,0.77 0.32,0.76 0.31,0.77 0.31,0.77 0.31,0.76 0.31,0.77 0.29,0.77 0.28,0.77 0.25,0.76 0.22,0.77 0.19,0.77 0.16,0.76 0.13,0.77 0.12,0.77 0.11,0.77 0.11,0.76 0.12,0.77 0.14,0.77 0.15,0.76 0.16,0.77 0.16,0.77 0.17,0.76 0.16,0.77 0.16,0.77 0.15,0.77 0.14,0.76 0.12,0.77 0.12,0.77 0.11,0.76 0.1,0.77 0.09,0.77 0.08,0.77 0.07,0.76 0.06,0.77 0.05,0.77 0.05,0.76 0.04,0.77 0.03,0.77 0.02,0.77 0.03,0.76 0.02,0.77 0.01,0.77 0.01,0.76 0.01,0.77 0.01,0.77 v 0.76 l 0.01,0.77 0.01,0.77 0.01,0.77 0.01,0.76 0.01,0.77 0.01,0.77 0.01,0.76 v 0.77 l 0.01,0.77 v 0.77 0.76 0.77 0.77 0.76 0.77 l -0.01,0.77 v 0.77 0.76 0.77 0.77 l -0.01,0.76 0.01,0.77 v 0.77 l 0.01,0.76 v 0.77 l 0.01,0.77 0.01,0.77 0.01,0.76 v 0.77 l 0.01,0.77 v 0.76 0.77 0.77 0.77 l 0.01,0.76 v 0.77 l 0.01,0.77 0.01,0.76 v 0.77 l 0.01,0.77 0.01,0.76 0.01,0.77 v 0.77 l 0.01,0.77 0.01,0.76 0.01,0.77 v 0.77 0.76 l 0.01,0.77 v 0.77 0.77 0.76 0.77 0.77 0.76 0.77 0.77 h 0.04 v -0.77 -0.77 -0.76 -0.77 -0.77 -0.76 -0.77 -0.77 l 0.01,-0.77 v -0.76 -0.77 l 0.01,-0.77 0.01,-0.76 0.01,-0.77 v -0.77 l 0.01,-0.77 0.01,-0.76 0.01,-0.77 v -0.77 l 0.01,-0.76 0.01,-0.77 v -0.77 l 0.01,-0.76 v -0.77 -0.77 -0.77 l 0.01,-0.76 v -0.77 -0.77 l 0.01,-0.76 0.01,-0.77 0.01,-0.77 v -0.77 l 0.01,-0.76 v -0.77 l 0.01,-0.77 -0.01,-0.76 v -0.77 -0.77 -0.76 -0.77 -0.77 -0.77 l -0.01,-0.76 v -0.77 -0.77 -0.76 l 0.01,-0.77 v -0.77 -0.77 l 0.01,-0.76 0.01,-0.77 0.01,-0.77 0.02,-0.76 0.01,-0.77 v -0.77 l 0.01,-0.77 0.01,-0.76 v -0.77 l 0.01,-0.77 0.01,-0.76 0.01,-0.77 0.02,-0.77 0.03,-0.76 0.02,-0.77 0.04,-0.77 0.03,-0.77 0.05,-0.76 0.05,-0.77 0.06,-0.77 0.07,-0.76 0.08,-0.77 0.09,-0.77 0.1,-0.77 0.11,-0.76 0.12,-0.77 0.12,-0.77 0.14,-0.76 0.15,-0.77 0.16,-0.77 0.16,-0.77 0.17,-0.76 0.16,-0.77 0.16,-0.77 0.15,-0.76 0.14,-0.77 0.12,-0.77 0.11,-0.76 0.11,-0.77 0.12,-0.77 0.13,-0.77 0.16,-0.76 0.19,-0.77 0.22,-0.77 0.25,-0.76 0.28,-0.77 0.29,-0.77 0.31,-0.77 0.31,-0.76 0.31,-0.77 0.31,-0.77 0.32,-0.76 0.31,-0.77 0.31,-0.77 0.31,-0.77 0.3,-0.76 0.28,-0.77 0.27,-0.77 0.25,-0.76 0.24,-0.77 0.24,-0.77 0.26,-0.76 0.28,-0.77 0.33,-0.77 0.36,-0.77 0.39,-0.76 0.39,-0.77 0.37,-0.77 0.32,-0.76 0.26,-0.77 0.17,-0.77 0.07,-0.77 -0.02,-0.76 -0.09,-0.77 -0.14,-0.77 -0.18,-0.76 -0.18,-0.77 -0.17,-0.77 -0.13,-0.77 -0.09,-0.76 -0.04,-0.77 0.01,-0.77 0.05,-0.76 0.07,-0.77 0.09,-0.77 0.08,-0.76 0.07,-0.77 0.06,-0.77 0.03,-0.77 0.03,-0.76 0.04,-0.77 0.05,-0.77 0.06,-0.76 0.1,-0.77 0.11,-0.77 0.12,-0.77 0.14,-0.76 0.12,-0.77 0.12,-0.77 0.08,-0.76 0.04,-0.77 -0.05,-0.77 -0.15,-0.76 -0.27,-0.77 -0.4,-0.77 -0.55,-0.77 -0.68,-0.76 -0.79,-0.77 -0.86,-0.77 -0.91,-0.76 -0.93,-0.77 -0.89,-0.77 -0.85,-0.77 -0.78,-0.76 -0.71,-0.77 -0.62,-0.77 -0.54,-0.76 -0.46,-0.77 -0.39,-0.77 -0.33,-0.77 -0.27,-0.76 -0.22,-0.77 -0.17,-0.77 -0.13,-0.76 -0.11,-0.77 z" /><path
           inkscape:connector-curvature="0"
           id="path862"
           style="fill:#ffffff;fill-opacity:1;fill-rule:nonzero;stroke:#333333;stroke-width:1.05999994;stroke-linecap:round;stroke-linejoin:round;stroke-miterlimit:10;stroke-dasharray:none;stroke-opacity:1"
           d="m 809.17,380.52 -0.02,0.78 -0.02,0.77 -0.03,0.77 -0.04,0.78 -0.05,0.77 -0.05,0.77 -0.04,0.78 -0.04,0.77 -0.04,0.77 -0.04,0.78 -0.05,0.77 -0.05,0.77 -0.05,0.78 -0.03,0.77 -0.02,0.77 v 0.78 0.77 0.77 l -0.01,0.78 -0.05,0.77 -0.07,0.77 -0.08,0.77 -0.07,0.78 -0.08,0.77 -0.08,0.77 -0.1,0.78 -0.09,0.77 -0.09,0.77 -0.05,0.78 -0.03,0.77 -0.03,0.77 -0.03,0.78 -0.07,0.77 -0.1,0.77 -0.11,0.78 -0.11,0.77 -0.1,0.77 -0.1,0.78 -0.1,0.77 -0.11,0.77 -0.11,0.78 -0.14,0.77 -0.16,0.77 -0.2,0.78 -0.24,0.77 -0.25,0.77 -0.23,0.78 -0.16,0.77 -0.08,0.77 -0.02,0.78 v 0.77 l -0.03,0.77 -0.08,0.78 -0.15,0.77 -0.17,0.77 -0.2,0.78 -0.18,0.77 -0.18,0.77 -0.17,0.78 -0.19,0.77 -0.22,0.77 -0.24,0.78 -0.27,0.77 -0.27,0.77 -0.26,0.78 -0.25,0.77 -0.26,0.77 -0.33,0.78 -0.41,0.77 -0.5,0.77 -0.58,0.78 -0.64,0.77 -0.68,0.77 -0.72,0.78 -0.76,0.77 -0.8,0.77 -0.83,0.77 -0.84,0.78 -0.8,0.77 -0.75,0.77 -0.71,0.78 -0.71,0.77 -0.71,0.77 -0.66,0.78 -0.53,0.77 -0.35,0.77 -0.18,0.78 -0.04,0.77 0.08,0.77 0.21,0.78 0.38,0.77 0.57,0.77 0.72,0.78 0.8,0.77 0.8,0.77 0.78,0.78 0.79,0.77 0.84,0.77 0.91,0.78 0.96,0.77 0.97,0.77 0.96,0.78 0.92,0.77 0.85,0.77 0.78,0.78 0.71,0.77 0.65,0.77 0.6,0.78 0.56,0.77 0.51,0.77 0.48,0.78 0.44,0.77 0.41,0.77 0.36,0.78 0.31,0.77 0.25,0.77 0.2,0.78 0.16,0.77 0.13,0.77 0.11,0.78 0.11,0.77 0.12,0.77 0.14,0.78 0.12,0.77 0.1,0.77 0.07,0.78 0.05,0.77 0.02,0.77 0.03,0.78 0.03,0.77 0.04,0.77 0.03,0.78 0.04,0.77 0.02,0.77 v 0.77 l -0.01,0.78 v 0.77 l -0.01,0.77 0.01,0.78 0.02,0.77 0.02,0.77 0.03,0.78 0.03,0.77 0.03,0.77 0.03,0.78 0.02,0.77 0.02,0.77 0.02,0.78 0.03,0.77 0.04,0.77 0.03,0.78 0.02,0.77 0.02,0.77 0.01,0.78 0.01,0.77 v 0.77 0.78 0.77 0.77 0.78 l 0.01,0.77 v 0.77 0.78 l 0.01,0.77 v 0.77 0.78 0.77 0.77 0.78 0.77 0.77 0.78 0.77 0.77 l -0.01,0.78 v 0.77 0.77 0.78 0.77 0.77 0.78 0.77 0.77 h 0.02 v -0.77 -0.77 -0.78 -0.77 -0.77 -0.78 -0.77 -0.77 l -0.01,-0.78 v -0.77 -0.77 -0.78 -0.77 -0.77 -0.78 -0.77 -0.77 -0.78 -0.77 l 0.01,-0.77 v -0.78 -0.77 l 0.01,-0.77 v -0.78 -0.77 -0.77 -0.78 -0.77 l 0.01,-0.77 0.01,-0.78 0.02,-0.77 0.02,-0.77 0.03,-0.78 0.04,-0.77 0.03,-0.77 0.02,-0.78 0.02,-0.77 0.02,-0.77 0.03,-0.78 0.03,-0.77 0.03,-0.77 0.03,-0.78 0.02,-0.77 0.02,-0.77 0.01,-0.78 -0.01,-0.77 v -0.77 l -0.01,-0.78 v -0.77 l 0.02,-0.77 0.04,-0.77 0.03,-0.78 0.04,-0.77 0.03,-0.77 0.03,-0.78 0.02,-0.77 0.05,-0.77 0.07,-0.78 0.1,-0.77 0.12,-0.77 0.14,-0.78 0.12,-0.77 0.11,-0.77 0.11,-0.78 0.13,-0.77 0.16,-0.77 0.2,-0.78 0.25,-0.77 0.31,-0.77 0.36,-0.78 0.41,-0.77 0.44,-0.77 0.48,-0.78 0.51,-0.77 0.56,-0.77 0.6,-0.78 0.65,-0.77 0.71,-0.77 0.78,-0.78 0.85,-0.77 0.92,-0.77 0.96,-0.78 0.97,-0.77 0.96,-0.77 0.91,-0.78 0.84,-0.77 0.79,-0.77 0.78,-0.78 0.8,-0.77 0.8,-0.77 0.72,-0.78 0.57,-0.77 0.38,-0.77 0.21,-0.78 0.08,-0.77 -0.04,-0.77 -0.18,-0.78 -0.35,-0.77 -0.53,-0.77 -0.66,-0.78 -0.71,-0.77 -0.71,-0.77 -0.71,-0.78 -0.75,-0.77 -0.8,-0.77 -0.84,-0.78 -0.83,-0.77 -0.8,-0.77 -0.76,-0.77 -0.72,-0.78 -0.68,-0.77 -0.64,-0.77 -0.58,-0.78 -0.5,-0.77 -0.41,-0.77 -0.33,-0.78 -0.26,-0.77 -0.25,-0.77 -0.26,-0.78 -0.27,-0.77 -0.27,-0.77 -0.24,-0.78 -0.22,-0.77 -0.19,-0.77 -0.17,-0.78 -0.18,-0.77 -0.18,-0.77 -0.2,-0.78 -0.17,-0.77 -0.15,-0.77 -0.08,-0.78 -0.03,-0.77 v -0.77 l -0.02,-0.78 -0.08,-0.77 -0.16,-0.77 -0.23,-0.78 -0.25,-0.77 -0.24,-0.77 -0.2,-0.78 -0.16,-0.77 -0.14,-0.77 -0.11,-0.78 -0.11,-0.77 -0.1,-0.77 -0.1,-0.78 -0.1,-0.77 -0.11,-0.77 -0.11,-0.78 -0.1,-0.77 -0.07,-0.77 -0.03,-0.78 -0.03,-0.77 -0.03,-0.77 -0.05,-0.78 -0.09,-0.77 -0.09,-0.77 -0.1,-0.78 -0.08,-0.77 -0.08,-0.77 -0.07,-0.78 -0.08,-0.77 -0.07,-0.77 -0.05,-0.77 -0.01,-0.78 v -0.77 -0.77 -0.78 l -0.02,-0.77 -0.03,-0.77 -0.05,-0.78 -0.05,-0.77 -0.04,-0.77 -0.05,-0.78 -0.04,-0.77 -0.04,-0.77 -0.04,-0.78 -0.05,-0.77 -0.05,-0.77 -0.04,-0.78 -0.03,-0.77 -0.02,-0.77 -0.02,-0.78 z" /></g></g><g
       id="g1032"
       transform="matrix(1.3333333,0,0,-1.3333333,-13.333333,745.33333)"><g
         clip-path="url(#clipPath1038)"
         id="g1034"><path
           inkscape:connector-curvature="0"
           id="path1040"
           style="fill:#cccccc;fill-opacity:1;fill-rule:nonzero;stroke:none"
           d="M 835.22,368.14 H 849.6 V 529.97 H 835.22 Z" /><text
           id="text1044"
           style="font-variant:normal;font-weight:normal;font-size:10px;font-family:Helvetica;-inkscape-font-specification:Helvetica;writing-mode:lr-tb;fill:#000000;fill-opacity:1;fill-rule:nonzero;stroke:none"
           transform="matrix(0,-1,-1,0,838.82,471.28)"><tspan
             id="tspan1042"
             sodipodi:role="line"
             y="0"
             x="0 7.2199998 12.78 19.450001 25.01 33.34 38.900002">H3K4me2</tspan></text>
</g></g><g
       id="g4054"
       transform="translate(923.71998)"><g
         transform="matrix(1.3333333,0,0,-1.3333333,-13.333333,546.14516)"
         id="g1312"><text
           transform="matrix(0,1,1,0,19.42,251.62)"
           style="font-variant:normal;font-weight:normal;font-size:12px;font-family:Helvetica;-inkscape-font-specification:Helvetica;writing-mode:lr-tb;fill:#000000;fill-opacity:1;fill-rule:nonzero;stroke:none"
           id="text1316"><tspan
             x="0 2.664 9.3360004 16.007999 22.68 26.676001 34.007999 42.012001 50.015999 60.012001"
             y="0"
             sodipodi:role="line"
             id="tspan1314">log2(FPKM)</tspan></text>
</g><g
         id="g4037"><g
           id="g932"
           transform="matrix(1.3333333,0,0,-1.3333333,-13.333333,745.33333)"><text
             id="text936"
             style="font-variant:normal;font-weight:normal;font-size:10px;font-family:Helvetica;-inkscape-font-specification:Helvetica;writing-mode:lr-tb;fill:#7f7f7f;fill-opacity:1;fill-rule:nonzero;stroke:none"
             transform="matrix(1,0,0,-1,23.02,377.85)"><tspan
               id="tspan934"
               sodipodi:role="line"
               y="0"
               x="0 5.8400002 11.4">−10</tspan></text>
<text
             id="text940"
             style="font-variant:normal;font-weight:normal;font-size:10px;font-family:Helvetica;-inkscape-font-specification:Helvetica;writing-mode:lr-tb;fill:#7f7f7f;fill-opacity:1;fill-rule:nonzero;stroke:none"
             transform="matrix(1,0,0,-1,34.42,429.59)"><tspan
               id="tspan938"
               y="0"
               x="0">0</tspan></text>
<text
             id="text944"
             style="font-variant:normal;font-weight:normal;font-size:10px;font-family:Helvetica;-inkscape-font-specification:Helvetica;writing-mode:lr-tb;fill:#7f7f7f;fill-opacity:1;fill-rule:nonzero;stroke:none"
             transform="matrix(1,0,0,-1,28.86,481.32)"><tspan
               id="tspan942"
               sodipodi:role="line"
               y="0"
               x="0 5.5599999">10</tspan></text>
</g><g
           id="g948"
           transform="matrix(1.3333333,0,0,-1.3333333,-13.333333,745.33333)"><path
             inkscape:connector-curvature="0"
             id="path950"
             style="fill:none;stroke:#7f7f7f;stroke-width:1.05999994;stroke-linecap:butt;stroke-linejoin:round;stroke-miterlimit:10;stroke-dasharray:none;stroke-opacity:1"
             d="m 42.81,381.44 h 4.25" /><path
             inkscape:connector-curvature="0"
             id="path952"
             style="fill:none;stroke:#7f7f7f;stroke-width:1.05999994;stroke-linecap:butt;stroke-linejoin:round;stroke-miterlimit:10;stroke-dasharray:none;stroke-opacity:1"
             d="m 42.81,433.18 h 4.25" /><path
             inkscape:connector-curvature="0"
             id="path954"
             style="fill:none;stroke:#7f7f7f;stroke-width:1.05999994;stroke-linecap:butt;stroke-linejoin:round;stroke-miterlimit:10;stroke-dasharray:none;stroke-opacity:1"
             d="m 42.81,484.91 h 4.25" /></g></g></g><g
       transform="matrix(1.3333385,0,0,-1.3333333,-0.00382162,290.85334)"
       style="display:inline"
       id="g4015"><g
         transform="translate(-10,-10)"
         id="g1278"><path
           d="m 765.86,33.03 v 4.25"
           style="fill:none;stroke:#7f7f7f;stroke-width:1.05999994;stroke-linecap:butt;stroke-linejoin:round;stroke-miterlimit:10;stroke-dasharray:none;stroke-opacity:1"
           id="path1280"
           inkscape:connector-curvature="0" /><path
           d="m 809.21,33.03 v 4.25"
           style="fill:none;stroke:#7f7f7f;stroke-width:1.05999994;stroke-linecap:butt;stroke-linejoin:round;stroke-miterlimit:10;stroke-dasharray:none;stroke-opacity:1"
           id="path1282"
           inkscape:connector-curvature="0" /></g><g
         transform="translate(-10,-10)"
         id="g1286"><text
           transform="matrix(1,0,0,-1,746.94,23.02)"
           style="font-variant:normal;font-weight:normal;font-size:10px;font-family:Helvetica;-inkscape-font-specification:Helvetica;writing-mode:lr-tb;fill:#7f7f7f;fill-opacity:1;fill-rule:nonzero;stroke:none"
           id="text1290"><tspan
             x="0 7.2199998 12.78 15.56 21.73 27.290001 32.849998"
             y="0"
             sodipodi:role="line"
             id="tspan1288">No Peak</tspan></text>
<text
           transform="matrix(1,0,0,-1,798.07,23.02)"
           style="font-variant:normal;font-weight:normal;font-size:10px;font-family:Helvetica;-inkscape-font-specification:Helvetica;writing-mode:lr-tb;fill:#7f7f7f;fill-opacity:1;fill-rule:nonzero;stroke:none"
           id="text1294"><tspan
             x="0 6.1700001 11.73 17.290001"
             y="0"
             sodipodi:role="line"
             id="tspan1292">Peak</tspan></text>
</g></g></g></svg>