<?xml version="1.0" encoding="UTF-8" standalone="no"?>
<!-- Created with Inkscape (http://www.inkscape.org/) -->

<svg
   xmlns:dc="http://purl.org/dc/elements/1.1/"
   xmlns:cc="http://creativecommons.org/ns#"
   xmlns:rdf="http://www.w3.org/1999/02/22-rdf-syntax-ns#"
   xmlns:svg="http://www.w3.org/2000/svg"
   xmlns="http://www.w3.org/2000/svg"
   xmlns:sodipodi="http://sodipodi.sourceforge.net/DTD/sodipodi-0.dtd"
   xmlns:inkscape="http://www.inkscape.org/namespaces/inkscape"
   version="1.1"
   id="svg2"
   xml:space="preserve"
   width="278.57999"
   height="191.62534"
   viewBox="0 0 278.57999 191.62534"
   sodipodi:docname="SICER-fig1.svg"
   inkscape:version="0.92.2 5c3e80d, 2017-08-06"><metadata
     id="metadata8"><rdf:RDF><cc:Work
         rdf:about=""><dc:format>image/svg+xml</dc:format><dc:type
           rdf:resource="http://purl.org/dc/dcmitype/StillImage" /><dc:title></dc:title></cc:Work></rdf:RDF></metadata><defs
     id="defs6"><clipPath
       clipPathUnits="userSpaceOnUse"
       id="clipPath20"><path
         d="M 0,0 H 728 V 1032 H 0 Z"
         id="path18"
         inkscape:connector-curvature="0" /></clipPath><clipPath
       clipPathUnits="userSpaceOnUse"
       id="clipPath486"><path
         d="M 595.605,829.84 H 386.67 V 617.652 h 208.935 z"
         id="path484"
         inkscape:connector-curvature="0" /></clipPath><clipPath
       clipPathUnits="userSpaceOnUse"
       id="clipPath492"><path
         d="M 0,0 H 728 V 1032 H 0 Z"
         id="path490"
         inkscape:connector-curvature="0" /></clipPath><clipPath
       clipPathUnits="userSpaceOnUse"
       id="clipPath506"><path
         d="M 0,0 H 728 V 1032 H 0 Z"
         id="path504"
         inkscape:connector-curvature="0" /></clipPath></defs><sodipodi:namedview
     pagecolor="#ffffff"
     bordercolor="#666666"
     borderopacity="1"
     objecttolerance="10"
     gridtolerance="10"
     guidetolerance="10"
     inkscape:pageopacity="0"
     inkscape:pageshadow="2"
     inkscape:window-width="1920"
     inkscape:window-height="1035"
     id="namedview4"
     showgrid="false"
     fit-margin-top="0"
     fit-margin-left="0"
     fit-margin-right="0"
     fit-margin-bottom="0"
     inkscape:zoom="2.5310997"
     inkscape:cx="122.2238"
     inkscape:cy="89.195735"
     inkscape:window-x="0"
     inkscape:window-y="1"
     inkscape:window-maximized="1"
     inkscape:current-layer="g10" /><g
     id="g10"
     inkscape:groupmode="layer"
     inkscape:label="SICER-fig1"
     transform="matrix(1.3333333,0,0,-1.3333333,-515.55999,1106.4533)"><g
       id="g12" /><g
       id="g480"><g
         id="g482"
         clip-path="url(#clipPath486)"><g
           id="g488"
           clip-path="url(#clipPath492)"><path
             d="M 400.237,713.652 H 595.355"
             style="fill:none;stroke:#100f0d;stroke-width:0.61799997;stroke-linecap:butt;stroke-linejoin:miter;stroke-miterlimit:10;stroke-dasharray:none;stroke-opacity:1"
             id="path494"
             inkscape:connector-curvature="0" /><path
             d="m 400.532,713.652 v -2.627 m 11.531,2.627 v -2.627 m -5.913,2.627 v -2.627 m 11.825,2.627 v -2.627 m 5.913,2.627 v -2.627 m 5.912,2.627 v -2.627 m 5.913,2.627 v -2.627 m 5.913,2.627 v -2.627 m 5.912,2.627 v -2.627 m 5.913,2.627 v -2.627 m 5.912,2.627 v -2.627 m 5.913,2.627 v -2.627 m 5.913,2.627 v -2.627 m 5.913,2.627 v -2.627 m 5.913,2.627 v -2.627 m 5.912,2.627 v -2.627 m 5.912,2.627 v -2.627 m 5.913,2.627 v -2.627 m 5.913,2.627 v -2.627 m 5.912,2.627 v -2.627 m 5.913,2.627 v -2.627 m 5.913,2.627 v -2.627 m 5.913,2.627 v -2.627 m 5.913,2.627 v -2.627 m 5.913,2.627 v -2.627 m 5.912,2.627 v -2.627 m 5.912,2.627 v -2.627 m 5.913,2.627 v -2.627 m 5.913,2.627 v -2.627 m 5.912,2.627 v -2.627 m 5.913,2.627 v -2.627 m 5.913,2.627 v -2.627 m 5.912,2.627 v -2.627 m 5.913,2.627 v -2.627 m -194.527,2.627 h 2.661 m -2.661,11.385 h 2.661 m -2.661,-5.839 h 2.661 m -2.661,11.678 h 2.661 m -2.661,5.838 h 2.661 m -2.661,5.839 h 2.661 m -2.661,5.839 h 2.661 m -2.661,5.838 h 2.661 m -2.661,5.839 h 2.661 m -2.661,5.838 h 2.661 m -2.661,5.839 h 2.661 m -2.661,5.838 h 2.661 m -2.661,5.839 h 2.661 m -2.661,5.838 h 2.661 m -2.661,5.839 h 2.661 m -2.661,5.839 h 2.661 m -2.661,5.838 h 2.661 m -2.661,5.839 h 2.661 m -2.661,5.838 h 2.661 m -2.661,5.839 h 2.661"
             style="fill:none;stroke:#100f0d;stroke-width:0.5;stroke-linecap:butt;stroke-linejoin:miter;stroke-miterlimit:10;stroke-dasharray:none;stroke-opacity:1"
             id="path496"
             inkscape:connector-curvature="0" /><path
             d="M 400.532,829.84 V 713.068"
             style="fill:none;stroke:#100f0d;stroke-width:0.61799997;stroke-linecap:butt;stroke-linejoin:miter;stroke-miterlimit:10;stroke-dasharray:none;stroke-opacity:1"
             id="path498"
             inkscape:connector-curvature="0" /></g></g></g><path
       d="m 411.767,713.944 h 5.9131 v 5.838 h -5.9131 z"
       style="fill:#231f20;fill-opacity:1;fill-rule:nonzero;stroke:none"
       id="path508"
       inkscape:connector-curvature="0" /><path
       d="m 411.767,713.944 h 5.9131 v 5.838 h -5.9131 z"
       style="fill:none;stroke:#100f0d;stroke-width:0.61799997;stroke-linecap:butt;stroke-linejoin:miter;stroke-miterlimit:10;stroke-dasharray:none;stroke-opacity:1"
       id="path510"
       inkscape:connector-curvature="0" /><path
       d="m 453.156,713.944 h 5.913 v 11.677 h -5.913 z"
       style="fill:#231f20;fill-opacity:1;fill-rule:nonzero;stroke:none"
       id="path512"
       inkscape:connector-curvature="0" /><path
       d="m 453.156,713.944 h 5.913 v 11.677 h -5.913 z"
       style="fill:none;stroke:#100f0d;stroke-width:0.5;stroke-linecap:butt;stroke-linejoin:miter;stroke-miterlimit:10;stroke-dasharray:none;stroke-opacity:1"
       id="path514"
       inkscape:connector-curvature="0" /><path
       d="m 459.069,713.944 h 5.9121 v 40.87 h -5.9121 z"
       style="fill:#231f20;fill-opacity:1;fill-rule:nonzero;stroke:none"
       id="path516"
       inkscape:connector-curvature="0" /><path
       d="m 459.069,713.944 h 5.9121 v 40.87 h -5.9121 z"
       style="fill:none;stroke:#100f0d;stroke-width:0.5;stroke-linecap:butt;stroke-linejoin:miter;stroke-miterlimit:10;stroke-dasharray:none;stroke-opacity:1"
       id="path518"
       inkscape:connector-curvature="0" /><path
       d="m 464.981,713.944 h 5.9131 v 110.933 h -5.9131 z"
       style="fill:#231f20;fill-opacity:1;fill-rule:nonzero;stroke:none"
       id="path520"
       inkscape:connector-curvature="0" /><path
       d="m 464.981,713.944 h 5.9131 v 110.933 h -5.9131 z"
       style="fill:none;stroke:#100f0d;stroke-width:0.5;stroke-linecap:butt;stroke-linejoin:miter;stroke-miterlimit:10;stroke-dasharray:none;stroke-opacity:1"
       id="path522"
       inkscape:connector-curvature="0" /><path
       d="m 405.854,713.944 h 5.9131 v 5.838 h -5.9131 z"
       style="fill:#100f0d;fill-opacity:1;fill-rule:nonzero;stroke:none"
       id="path524"
       inkscape:connector-curvature="0" /><path
       d="m 405.854,713.944 h 5.9131 v 5.838 h -5.9131 z"
       style="fill:#100f0d;fill-opacity:1;fill-rule:nonzero;stroke:none"
       id="path526"
       inkscape:connector-curvature="0" /><path
       d="m 405.854,713.944 h 5.9131 v 5.838 h -5.9131 z"
       style="fill:#100f0d;fill-opacity:1;fill-rule:nonzero;stroke:none"
       id="path528"
       inkscape:connector-curvature="0" /><path
       d="m 405.854,713.944 h 5.9131 v 5.838 h -5.9131 z"
       style="fill:#100f0d;fill-opacity:1;fill-rule:nonzero;stroke:none"
       id="path530"
       inkscape:connector-curvature="0" /><path
       d="m 405.854,713.944 h 5.9131 v 5.838 h -5.9131 z"
       style="fill:#100f0d;fill-opacity:1;fill-rule:nonzero;stroke:none"
       id="path532"
       inkscape:connector-curvature="0" /><path
       d="m 405.854,713.944 h 5.9131 v 5.838 h -5.9131 z"
       style="fill:#100f0d;fill-opacity:1;fill-rule:nonzero;stroke:none"
       id="path534"
       inkscape:connector-curvature="0" /><path
       d="m 405.854,713.944 h 5.9131 v 5.838 h -5.9131 z"
       style="fill:#100f0d;fill-opacity:1;fill-rule:nonzero;stroke:none"
       id="path536"
       inkscape:connector-curvature="0" /><path
       d="m 405.854,713.944 h 5.9131 v 5.838 h -5.9131 z"
       style="fill:#100f0d;fill-opacity:1;fill-rule:nonzero;stroke:none"
       id="path538"
       inkscape:connector-curvature="0" /><path
       d="m 405.854,713.944 h 5.9131 v 5.838 h -5.9131 z"
       style="fill:#100f0d;fill-opacity:1;fill-rule:nonzero;stroke:none"
       id="path540"
       inkscape:connector-curvature="0" /><path
       d="m 405.854,713.944 h 5.9131 v 5.838 h -5.9131 z"
       style="fill:none;stroke:#100f0d;stroke-width:0.61799997;stroke-linecap:butt;stroke-linejoin:miter;stroke-miterlimit:10;stroke-dasharray:none;stroke-opacity:1"
       id="path542"
       inkscape:connector-curvature="0" /><path
       d="m 470.894,713.944 h 5.9121 v 58.385 h -5.9121 z"
       style="fill:#231f20;fill-opacity:1;fill-rule:nonzero;stroke:none"
       id="path544"
       inkscape:connector-curvature="0" /><path
       d="m 470.894,713.944 h 5.9121 v 58.385 h -5.9121 z"
       style="fill:none;stroke:#100f0d;stroke-width:0.5;stroke-linecap:butt;stroke-linejoin:miter;stroke-miterlimit:10;stroke-dasharray:none;stroke-opacity:1"
       id="path546"
       inkscape:connector-curvature="0" /><path
       d="m 476.806,713.944 h 5.9131 v 29.192 h -5.9131 z"
       style="fill:#231f20;fill-opacity:1;fill-rule:nonzero;stroke:none"
       id="path548"
       inkscape:connector-curvature="0" /><path
       d="m 476.806,713.944 h 5.9131 v 29.192 h -5.9131 z"
       style="fill:none;stroke:#100f0d;stroke-width:0.5;stroke-linecap:butt;stroke-linejoin:miter;stroke-miterlimit:10;stroke-dasharray:none;stroke-opacity:1"
       id="path550"
       inkscape:connector-curvature="0" /><path
       d="m 488.632,713.944 h 5.913 v 17.515 h -5.913 z"
       style="fill:#231f20;fill-opacity:1;fill-rule:nonzero;stroke:none"
       id="path552"
       inkscape:connector-curvature="0" /><path
       d="m 488.632,713.944 h 5.913 v 17.515 h -5.913 z"
       style="fill:none;stroke:#100f0d;stroke-width:0.5;stroke-linecap:butt;stroke-linejoin:miter;stroke-miterlimit:10;stroke-dasharray:none;stroke-opacity:1"
       id="path554"
       inkscape:connector-curvature="0" /><path
       d="m 500.457,713.944 h 5.912 v 23.354 h -5.912 z"
       style="fill:#231f20;fill-opacity:1;fill-rule:nonzero;stroke:none"
       id="path556"
       inkscape:connector-curvature="0" /><path
       d="m 500.457,713.944 h 5.912 v 23.354 h -5.912 z"
       style="fill:none;stroke:#100f0d;stroke-width:0.5;stroke-linecap:butt;stroke-linejoin:miter;stroke-miterlimit:10;stroke-dasharray:none;stroke-opacity:1"
       id="path558"
       inkscape:connector-curvature="0" /><path
       d="m 506.37,713.944 h 5.912 v 11.677 h -5.912 z"
       style="fill:#231f20;fill-opacity:1;fill-rule:nonzero;stroke:none"
       id="path560"
       inkscape:connector-curvature="0" /><path
       d="m 506.37,713.944 h 5.912 v 11.677 h -5.912 z"
       style="fill:none;stroke:#100f0d;stroke-width:0.5;stroke-linecap:butt;stroke-linejoin:miter;stroke-miterlimit:10;stroke-dasharray:none;stroke-opacity:1"
       id="path562"
       inkscape:connector-curvature="0" /><path
       d="m 518.195,713.944 h 5.913 v 5.838 h -5.913 z"
       style="fill:#231f20;fill-opacity:1;fill-rule:nonzero;stroke:none"
       id="path564"
       inkscape:connector-curvature="0" /><path
       d="m 518.195,713.944 h 5.913 v 5.838 h -5.913 z"
       style="fill:none;stroke:#100f0d;stroke-width:0.5;stroke-linecap:butt;stroke-linejoin:miter;stroke-miterlimit:10;stroke-dasharray:none;stroke-opacity:1"
       id="path566"
       inkscape:connector-curvature="0" /><path
       d="m 524.108,713.944 h 5.912 v 5.838 h -5.912 z"
       style="fill:#231f20;fill-opacity:1;fill-rule:nonzero;stroke:none"
       id="path568"
       inkscape:connector-curvature="0" /><path
       d="m 524.108,713.944 h 5.912 v 5.838 h -5.912 z"
       style="fill:none;stroke:#100f0d;stroke-width:0.5;stroke-linecap:butt;stroke-linejoin:miter;stroke-miterlimit:10;stroke-dasharray:none;stroke-opacity:1"
       id="path570"
       inkscape:connector-curvature="0" /><path
       d="m 535.933,713.944 h 5.913 v 93.417 h -5.913 z"
       style="fill:#231f20;fill-opacity:1;fill-rule:nonzero;stroke:none"
       id="path572"
       inkscape:connector-curvature="0" /><path
       d="m 535.933,713.944 h 5.913 v 93.417 h -5.913 z"
       style="fill:none;stroke:#100f0d;stroke-width:0.5;stroke-linecap:butt;stroke-linejoin:miter;stroke-miterlimit:10;stroke-dasharray:none;stroke-opacity:1"
       id="path574"
       inkscape:connector-curvature="0" /><path
       d="m 541.846,713.944 h 5.913 v 64.224 h -5.913 z"
       style="fill:#231f20;fill-opacity:1;fill-rule:nonzero;stroke:none"
       id="path576"
       inkscape:connector-curvature="0" /><path
       d="m 541.846,713.944 h 5.913 v 64.224 h -5.913 z"
       style="fill:none;stroke:#100f0d;stroke-width:0.5;stroke-linecap:butt;stroke-linejoin:miter;stroke-miterlimit:10;stroke-dasharray:none;stroke-opacity:1"
       id="path578"
       inkscape:connector-curvature="0" /><path
       d="m 553.671,713.944 h 5.913 v 35.031 h -5.913 z"
       style="fill:#231f20;fill-opacity:1;fill-rule:nonzero;stroke:none"
       id="path580"
       inkscape:connector-curvature="0" /><path
       d="m 553.671,713.944 h 5.913 v 35.031 h -5.913 z"
       style="fill:none;stroke:#100f0d;stroke-width:0.5;stroke-linecap:butt;stroke-linejoin:miter;stroke-miterlimit:10;stroke-dasharray:none;stroke-opacity:1"
       id="path582"
       inkscape:connector-curvature="0" /><path
       d="m 547.759,713.944 h 5.912 v 35.031 h -5.912 z"
       style="fill:#231f20;fill-opacity:1;fill-rule:nonzero;stroke:none"
       id="path584"
       inkscape:connector-curvature="0" /><path
       d="m 547.759,713.944 h 5.912 v 35.031 h -5.912 z"
       style="fill:none;stroke:#100f0d;stroke-width:0.5;stroke-linecap:butt;stroke-linejoin:miter;stroke-miterlimit:10;stroke-dasharray:none;stroke-opacity:1"
       id="path586"
       inkscape:connector-curvature="0" /><path
       d="m 494.544,713.944 h 5.913 v 5.838 h -5.913 z"
       style="fill:#231f20;fill-opacity:1;fill-rule:nonzero;stroke:none"
       id="path588"
       inkscape:connector-curvature="0" /><path
       d="m 494.544,713.944 h 5.913 v 5.838 h -5.913 z"
       style="fill:none;stroke:#100f0d;stroke-width:0.61799997;stroke-linecap:butt;stroke-linejoin:miter;stroke-miterlimit:10;stroke-dasharray:none;stroke-opacity:1"
       id="path590"
       inkscape:connector-curvature="0" /><path
       d="m 482.719,696.427 h 5.6172 v 5.547 h -5.6172 z"
       style="fill:#9e361e;fill-opacity:1;fill-rule:nonzero;stroke:none"
       id="path592"
       inkscape:connector-curvature="0" /><path
       d="m 482.719,696.427 h 5.6172 v 5.547 h -5.6172 z"
       style="fill:#9e361e;fill-opacity:1;fill-rule:nonzero;stroke:none"
       id="path594"
       inkscape:connector-curvature="0" /><path
       d="m 482.719,696.427 h 5.6172 v 5.547 h -5.6172 z"
       style="fill:#9e361e;fill-opacity:1;fill-rule:nonzero;stroke:none"
       id="path596"
       inkscape:connector-curvature="0" /><path
       d="m 482.719,696.427 h 5.6172 v 5.547 h -5.6172 z"
       style="fill:#9e361e;fill-opacity:1;fill-rule:nonzero;stroke:none"
       id="path598"
       inkscape:connector-curvature="0" /><path
       d="m 482.719,696.427 h 5.6172 v 5.547 h -5.6172 z"
       style="fill:#9e361e;fill-opacity:1;fill-rule:nonzero;stroke:none"
       id="path600"
       inkscape:connector-curvature="0" /><path
       d="m 482.719,696.427 h 5.6172 v 5.547 h -5.6172 z"
       style="fill:#9e361e;fill-opacity:1;fill-rule:nonzero;stroke:none"
       id="path602"
       inkscape:connector-curvature="0" /><path
       d="m 482.719,696.427 h 5.6172 v 5.547 h -5.6172 z"
       style="fill:#9e361e;fill-opacity:1;fill-rule:nonzero;stroke:none"
       id="path604"
       inkscape:connector-curvature="0" /><path
       d="m 482.719,696.427 h 5.6172 v 5.547 h -5.6172 z"
       style="fill:#9e361e;fill-opacity:1;fill-rule:nonzero;stroke:none"
       id="path606"
       inkscape:connector-curvature="0" /><path
       d="m 482.719,696.427 h 5.6172 v 5.547 h -5.6172 z"
       style="fill:#9e361e;fill-opacity:1;fill-rule:nonzero;stroke:none"
       id="path608"
       inkscape:connector-curvature="0" /><path
       d="m 482.719,696.427 h 5.6172 v 5.547 h -5.6172 z"
       style="fill:#9e361e;fill-opacity:1;fill-rule:nonzero;stroke:none"
       id="path610"
       inkscape:connector-curvature="0" /><path
       d="m 482.719,696.427 h 5.6172 v 5.547 h -5.6172 z"
       style="fill:#9e361e;fill-opacity:1;fill-rule:nonzero;stroke:none"
       id="path612"
       inkscape:connector-curvature="0" /><path
       d="m 482.719,696.427 h 5.6172 v 5.547 h -5.6172 z"
       style="fill:#9e361e;fill-opacity:1;fill-rule:nonzero;stroke:none"
       id="path614"
       inkscape:connector-curvature="0" /><path
       d="m 482.719,696.427 h 5.6172 v 5.547 h -5.6172 z"
       style="fill:none;stroke:#9e361e;stroke-width:0.61799997;stroke-linecap:butt;stroke-linejoin:miter;stroke-miterlimit:10;stroke-dasharray:none;stroke-opacity:1"
       id="path616"
       inkscape:connector-curvature="0" /><path
       d="m 494.544,696.427 h 5.617 v 5.547 h -5.617 z"
       style="fill:#9e361e;fill-opacity:1;fill-rule:nonzero;stroke:none"
       id="path618"
       inkscape:connector-curvature="0" /><path
       d="m 494.544,696.427 h 5.617 v 5.547 h -5.617 z"
       style="fill:#9e361e;fill-opacity:1;fill-rule:nonzero;stroke:none"
       id="path620"
       inkscape:connector-curvature="0" /><path
       d="m 494.544,696.427 h 5.617 v 5.547 h -5.617 z"
       style="fill:#9e361e;fill-opacity:1;fill-rule:nonzero;stroke:none"
       id="path622"
       inkscape:connector-curvature="0" /><path
       d="m 494.544,696.427 h 5.617 v 5.547 h -5.617 z"
       style="fill:#9e361e;fill-opacity:1;fill-rule:nonzero;stroke:none"
       id="path624"
       inkscape:connector-curvature="0" /><path
       d="m 494.544,696.427 h 5.617 v 5.547 h -5.617 z"
       style="fill:#9e361e;fill-opacity:1;fill-rule:nonzero;stroke:none"
       id="path626"
       inkscape:connector-curvature="0" /><path
       d="m 494.544,696.427 h 5.617 v 5.547 h -5.617 z"
       style="fill:#9e361e;fill-opacity:1;fill-rule:nonzero;stroke:none"
       id="path628"
       inkscape:connector-curvature="0" /><path
       d="m 494.544,696.427 h 5.617 v 5.547 h -5.617 z"
       style="fill:#9e361e;fill-opacity:1;fill-rule:nonzero;stroke:none"
       id="path630"
       inkscape:connector-curvature="0" /><path
       d="m 494.544,696.427 h 5.617 v 5.547 h -5.617 z"
       style="fill:#9e361e;fill-opacity:1;fill-rule:nonzero;stroke:none"
       id="path632"
       inkscape:connector-curvature="0" /><path
       d="m 494.544,696.427 h 5.617 v 5.547 h -5.617 z"
       style="fill:#9e361e;fill-opacity:1;fill-rule:nonzero;stroke:none"
       id="path634"
       inkscape:connector-curvature="0" /><path
       d="m 494.544,696.427 h 5.617 v 5.547 h -5.617 z"
       style="fill:#9e361e;fill-opacity:1;fill-rule:nonzero;stroke:none"
       id="path636"
       inkscape:connector-curvature="0" /><path
       d="m 494.544,696.427 h 5.617 v 5.547 h -5.617 z"
       style="fill:#9e361e;fill-opacity:1;fill-rule:nonzero;stroke:none"
       id="path638"
       inkscape:connector-curvature="0" /><path
       d="m 494.544,696.427 h 5.617 v 5.547 h -5.617 z"
       style="fill:#9e361e;fill-opacity:1;fill-rule:nonzero;stroke:none"
       id="path640"
       inkscape:connector-curvature="0" /><path
       d="m 494.544,696.427 h 5.617 v 5.547 h -5.617 z"
       style="fill:none;stroke:#9e361e;stroke-width:0.61799997;stroke-linecap:butt;stroke-linejoin:miter;stroke-miterlimit:10;stroke-dasharray:none;stroke-opacity:1"
       id="path642"
       inkscape:connector-curvature="0" /><path
       d="m 453.156,702.266 h 59.127 v 5.839 h -59.127 z"
       style="fill:#29923e;fill-opacity:1;fill-rule:nonzero;stroke:none"
       id="path644"
       inkscape:connector-curvature="0" /><path
       d="m 453.156,702.266 h 59.127 v 5.839 h -59.127 z"
       style="fill:none;stroke:#100f0d;stroke-width:0.5;stroke-linecap:butt;stroke-linejoin:miter;stroke-miterlimit:10;stroke-dasharray:none;stroke-opacity:1"
       id="path646"
       inkscape:connector-curvature="0" /><path
       d="m 535.933,702.266 h 23.651 v 5.839 h -23.651 z"
       style="fill:#29923e;fill-opacity:1;fill-rule:nonzero;stroke:none"
       id="path648"
       inkscape:connector-curvature="0" /><path
       d="m 535.933,702.266 h 23.651 v 5.839 h -23.651 z"
       style="fill:none;stroke:#100f0d;stroke-width:0.5;stroke-linecap:butt;stroke-linejoin:miter;stroke-miterlimit:10;stroke-dasharray:none;stroke-opacity:1"
       id="path650"
       inkscape:connector-curvature="0" /><path
       d="m 471.333,686.456 c -0.323,-0.114 -0.961,-0.302 -1.714,-0.302 -0.844,0 -1.54,0.212 -2.086,0.728 -0.48,0.457 -0.778,1.193 -0.778,2.051 0.009,1.643 1.151,2.844 3.021,2.844 0.646,0 1.151,-0.138 1.391,-0.253 l -0.174,-0.58 c -0.298,0.13 -0.671,0.237 -1.233,0.237 -1.358,0 -2.243,-0.834 -2.243,-2.216 0,-1.397 0.852,-2.223 2.152,-2.223 0.472,0 0.795,0.066 0.96,0.147 v 1.643 h -1.134 v 0.573 h 1.838 v -2.649"
       style="fill:#100f0d;fill-opacity:1;fill-rule:nonzero;stroke:none"
       id="path652"
       inkscape:connector-curvature="0" /><path
       d="m 474.95,688.573 c 0.008,0.458 -0.19,1.169 -1.009,1.169 -0.738,0 -1.06,-0.67 -1.118,-1.169 z m -2.135,-0.515 c 0.016,-0.972 0.645,-1.373 1.374,-1.373 0.521,0 0.836,0.09 1.109,0.204 l 0.124,-0.514 c -0.257,-0.115 -0.695,-0.254 -1.333,-0.254 -1.233,0 -1.97,0.809 -1.97,2.003 0,1.193 0.712,2.133 1.879,2.133 1.308,0 1.656,-1.136 1.656,-1.863 0,-0.148 -0.016,-0.262 -0.025,-0.336 h -2.814"
       style="fill:#100f0d;fill-opacity:1;fill-rule:nonzero;stroke:none"
       id="path654"
       inkscape:connector-curvature="0" /><path
       d="m 476.557,689.096 c 0,0.409 -0.009,0.744 -0.033,1.071 h 0.645 l 0.041,-0.654 h 0.017 c 0.199,0.376 0.662,0.744 1.325,0.744 0.554,0 1.415,-0.327 1.415,-1.684 v -2.362 h -0.729 v 2.281 c 0,0.637 -0.24,1.168 -0.926,1.168 -0.481,0 -0.853,-0.335 -0.977,-0.735 -0.033,-0.09 -0.05,-0.212 -0.05,-0.335 v -2.379 h -0.728 v 2.885"
       style="fill:#100f0d;fill-opacity:1;fill-rule:nonzero;stroke:none"
       id="path656"
       inkscape:connector-curvature="0" /><path
       d="m 481.6,688.181 c 0,-0.866 0.506,-1.52 1.218,-1.52 0.695,0 1.216,0.645 1.216,1.536 0,0.671 -0.339,1.521 -1.201,1.521 -0.86,0 -1.233,-0.785 -1.233,-1.537 z m 3.179,0.041 c 0,-1.463 -1.027,-2.101 -1.995,-2.101 -1.085,0 -1.921,0.785 -1.921,2.035 0,1.325 0.878,2.101 1.987,2.101 1.151,0 1.929,-0.825 1.929,-2.035"
       style="fill:#100f0d;fill-opacity:1;fill-rule:nonzero;stroke:none"
       id="path658"
       inkscape:connector-curvature="0" /><path
       d="m 485.695,689.096 c 0,0.409 -0.008,0.744 -0.033,1.071 h 0.638 l 0.032,-0.637 h 0.026 c 0.223,0.376 0.595,0.727 1.257,0.727 0.547,0 0.961,-0.327 1.135,-0.792 h 0.016 c 0.125,0.22 0.282,0.392 0.447,0.514 0.24,0.18 0.505,0.278 0.886,0.278 0.53,0 1.316,-0.343 1.316,-1.716 v -2.33 h -0.712 v 2.24 c 0,0.76 -0.281,1.218 -0.869,1.218 -0.414,0 -0.736,-0.303 -0.861,-0.654 -0.033,-0.098 -0.058,-0.229 -0.058,-0.36 v -2.444 h -0.712 v 2.371 c 0,0.629 -0.281,1.087 -0.836,1.087 -0.455,0 -0.786,-0.36 -0.902,-0.72 -0.041,-0.106 -0.058,-0.229 -0.058,-0.351 v -2.387 h -0.712 v 2.885"
       style="fill:#100f0d;fill-opacity:1;fill-rule:nonzero;stroke:none"
       id="path660"
       inkscape:connector-curvature="0" /><path
       d="m 495.142,688.573 c 0.007,0.458 -0.191,1.169 -1.01,1.169 -0.737,0 -1.06,-0.67 -1.117,-1.169 z m -2.136,-0.515 c 0.017,-0.972 0.645,-1.373 1.374,-1.373 0.521,0 0.836,0.09 1.109,0.204 l 0.124,-0.514 c -0.256,-0.115 -0.695,-0.254 -1.333,-0.254 -1.233,0 -1.969,0.809 -1.969,2.003 0,1.193 0.712,2.133 1.879,2.133 1.307,0 1.655,-1.136 1.655,-1.863 0,-0.148 -0.016,-0.262 -0.025,-0.336 h -2.814"
       style="fill:#100f0d;fill-opacity:1;fill-rule:nonzero;stroke:none"
       id="path662"
       inkscape:connector-curvature="0" /><path
       d="m 501.357,686.358 c -0.191,-0.098 -0.613,-0.237 -1.151,-0.237 -1.209,0 -1.995,0.818 -1.995,2.027 0,1.218 0.845,2.101 2.152,2.101 0.431,0 0.812,-0.106 1.01,-0.204 l -0.165,-0.556 c -0.174,0.098 -0.447,0.188 -0.845,0.188 -0.919,0 -1.416,-0.67 -1.416,-1.496 0,-0.916 0.597,-1.48 1.392,-1.48 0.413,0 0.686,0.107 0.894,0.197 l 0.124,-0.54"
       style="fill:#100f0d;fill-opacity:1;fill-rule:nonzero;stroke:none"
       id="path664"
       inkscape:connector-curvature="0" /><path
       d="m 502.655,688.181 c 0,-0.866 0.506,-1.52 1.217,-1.52 0.696,0 1.218,0.645 1.218,1.536 0,0.671 -0.34,1.521 -1.201,1.521 -0.861,0 -1.234,-0.785 -1.234,-1.537 z m 3.179,0.041 c 0,-1.463 -1.026,-2.101 -1.994,-2.101 -1.085,0 -1.921,0.785 -1.921,2.035 0,1.325 0.878,2.101 1.986,2.101 1.152,0 1.929,-0.825 1.929,-2.035"
       style="fill:#100f0d;fill-opacity:1;fill-rule:nonzero;stroke:none"
       id="path666"
       inkscape:connector-curvature="0" /><path
       d="m 507.2,688.181 c 0,-0.866 0.506,-1.52 1.217,-1.52 0.696,0 1.218,0.645 1.218,1.536 0,0.671 -0.34,1.521 -1.201,1.521 -0.861,0 -1.234,-0.785 -1.234,-1.537 z m 3.179,0.041 c 0,-1.463 -1.026,-2.101 -1.994,-2.101 -1.085,0 -1.921,0.785 -1.921,2.035 0,1.325 0.878,2.101 1.986,2.101 1.152,0 1.929,-0.825 1.929,-2.035"
       style="fill:#100f0d;fill-opacity:1;fill-rule:nonzero;stroke:none"
       id="path668"
       inkscape:connector-curvature="0" /><path
       d="m 511.299,688.933 c 0,0.466 -0.009,0.866 -0.033,1.234 h 0.637 l 0.025,-0.776 h 0.033 c 0.182,0.531 0.621,0.866 1.109,0.866 0.082,0 0.141,-0.008 0.207,-0.024 v -0.679 c -0.075,0.016 -0.149,0.025 -0.249,0.025 -0.512,0 -0.877,-0.385 -0.976,-0.924 -0.017,-0.098 -0.033,-0.212 -0.033,-0.335 v -2.109 h -0.72 v 2.722"
       style="fill:#100f0d;fill-opacity:1;fill-rule:nonzero;stroke:none"
       id="path670"
       inkscape:connector-curvature="0" /><path
       d="m 516.737,688.557 c 0,0.09 -0.008,0.213 -0.033,0.303 -0.107,0.457 -0.505,0.833 -1.051,0.833 -0.754,0 -1.201,-0.654 -1.201,-1.528 0,-0.802 0.398,-1.464 1.185,-1.464 0.488,0 0.934,0.319 1.067,0.859 0.025,0.098 0.033,0.196 0.033,0.31 z m 0.729,3.458 v -4.782 c 0,-0.351 0.008,-0.752 0.033,-1.022 h -0.654 l -0.033,0.687 h -0.017 c -0.224,-0.442 -0.712,-0.777 -1.365,-0.777 -0.969,0 -1.714,0.809 -1.714,2.011 -0.008,1.316 0.819,2.125 1.796,2.125 0.613,0 1.027,-0.286 1.209,-0.605 h 0.016 v 2.363 h 0.729"
       style="fill:#100f0d;fill-opacity:1;fill-rule:nonzero;stroke:none"
       id="path672"
       inkscape:connector-curvature="0" /><path
       d="m 519.4,686.211 h -0.728 v 3.9561 h 0.728 z m -0.728,0 z m 0.811,5.068 c 0.008,-0.245 -0.174,-0.441 -0.463,-0.441 -0.257,0 -0.439,0.196 -0.439,0.441 0,0.253 0.19,0.45 0.455,0.45 0.273,0 0.447,-0.197 0.447,-0.45"
       style="fill:#100f0d;fill-opacity:1;fill-rule:nonzero;stroke:none"
       id="path674"
       inkscape:connector-curvature="0" /><path
       d="m 520.608,689.096 c 0,0.409 -0.008,0.744 -0.033,1.071 h 0.646 l 0.041,-0.654 h 0.016 c 0.2,0.376 0.663,0.744 1.326,0.744 0.553,0 1.415,-0.327 1.415,-1.684 v -2.362 h -0.729 v 2.281 c 0,0.637 -0.24,1.168 -0.927,1.168 -0.48,0 -0.852,-0.335 -0.976,-0.735 -0.033,-0.09 -0.05,-0.212 -0.05,-0.335 v -2.379 h -0.729 v 2.885"
       style="fill:#100f0d;fill-opacity:1;fill-rule:nonzero;stroke:none"
       id="path676"
       inkscape:connector-curvature="0" /><path
       d="m 527.316,688.23 c -0.793,0.016 -1.696,-0.122 -1.696,-0.891 0,-0.466 0.315,-0.687 0.687,-0.687 0.521,0 0.852,0.328 0.968,0.663 0.025,0.073 0.041,0.155 0.041,0.229 z m 0.705,-1.071 c 0,-0.343 0.016,-0.678 0.066,-0.948 h -0.663 l -0.058,0.499 h -0.024 c -0.224,-0.311 -0.654,-0.589 -1.226,-0.589 -0.811,0 -1.224,0.564 -1.224,1.136 0,0.957 0.86,1.48 2.408,1.472 v 0.081 c 0,0.327 -0.091,0.916 -0.91,0.916 -0.373,0 -0.762,-0.115 -1.043,-0.294 l -0.166,0.474 c 0.331,0.212 0.811,0.351 1.316,0.351 1.226,0 1.524,-0.825 1.524,-1.618 v -1.48"
       style="fill:#100f0d;fill-opacity:1;fill-rule:nonzero;stroke:none"
       id="path678"
       inkscape:connector-curvature="0" /><path
       d="m 530.073,691.115 v -0.948 h 1.043 v -0.547 h -1.043 v -2.134 c 0,-0.49 0.141,-0.768 0.547,-0.768 0.198,0 0.315,0.016 0.422,0.049 l 0.033,-0.54 c -0.14,-0.057 -0.364,-0.106 -0.645,-0.106 -0.34,0 -0.614,0.115 -0.787,0.311 -0.206,0.212 -0.282,0.564 -0.282,1.03 v 2.158 h -0.62 v 0.547 h 0.62 v 0.728 l 0.712,0.22"
       style="fill:#100f0d;fill-opacity:1;fill-rule:nonzero;stroke:none"
       id="path680"
       inkscape:connector-curvature="0" /><path
       d="m 534.477,688.573 c 0.007,0.458 -0.191,1.169 -1.01,1.169 -0.737,0 -1.06,-0.67 -1.117,-1.169 z m -2.136,-0.515 c 0.017,-0.972 0.645,-1.373 1.374,-1.373 0.521,0 0.836,0.09 1.109,0.204 l 0.124,-0.514 c -0.257,-0.115 -0.695,-0.254 -1.333,-0.254 -1.233,0 -1.969,0.809 -1.969,2.003 0,1.193 0.712,2.133 1.878,2.133 1.308,0 1.656,-1.136 1.656,-1.863 0,-0.148 -0.016,-0.262 -0.025,-0.336 h -2.814"
       style="fill:#100f0d;fill-opacity:1;fill-rule:nonzero;stroke:none"
       id="path682"
       inkscape:connector-curvature="0" /><path
       d="m 389.583,750.313 v 0.727 c 0,0.76 -0.422,1.242 -1.058,1.242 -0.721,0 -1.036,-0.515 -1.044,-1.267 0,-0.343 0.033,-0.588 0.066,-0.702 z m -2.541,-0.712 c -0.074,0.36 -0.115,0.875 -0.115,1.365 0,0.761 0.141,1.251 0.455,1.594 0.248,0.278 0.629,0.433 1.06,0.433 0.736,0 1.224,-0.457 1.423,-1.038 h 0.025 c 0.149,0.425 0.547,0.679 1.126,0.81 0.778,0.179 1.316,0.31 1.531,0.425 v -0.736 c -0.166,-0.09 -0.638,-0.213 -1.333,-0.368 -0.769,-0.164 -1.06,-0.457 -1.084,-1.103 v -0.67 h 2.417 v -0.712 h -5.505"
       style="fill:#100f0d;fill-opacity:1;fill-rule:nonzero;stroke:none"
       id="path684"
       inkscape:connector-curvature="0" /><path
       d="m 390.154,756.484 c -0.462,0.008 -1.183,-0.188 -1.183,-0.998 0,-0.727 0.679,-1.046 1.183,-1.103 z m 0.522,-2.109 c 0.985,0.016 1.391,0.637 1.391,1.357 0,0.515 -0.091,0.825 -0.207,1.095 l 0.521,0.122 c 0.116,-0.253 0.257,-0.686 0.257,-1.316 0,-1.217 -0.819,-1.945 -2.027,-1.945 -1.209,0 -2.162,0.703 -2.162,1.856 0,1.291 1.151,1.634 1.888,1.634 0.149,0 0.265,-0.016 0.339,-0.024 v -2.779"
       style="fill:#100f0d;fill-opacity:1;fill-rule:nonzero;stroke:none"
       id="path686"
       inkscape:connector-curvature="0" /><path
       d="m 390.502,760.154 c -0.016,-0.785 0.124,-1.676 0.902,-1.676 0.472,0 0.696,0.311 0.696,0.678 0,0.515 -0.331,0.843 -0.67,0.957 -0.075,0.024 -0.157,0.041 -0.233,0.041 z m 1.085,0.695 c 0.348,0 0.687,0.016 0.96,0.065 v -0.654 l -0.505,-0.057 v -0.025 c 0.315,-0.22 0.596,-0.645 0.596,-1.21 0,-0.8 -0.571,-1.209 -1.151,-1.209 -0.968,0 -1.498,0.85 -1.49,2.378 h -0.082 c -0.332,0 -0.928,-0.09 -0.928,-0.899 0,-0.367 0.117,-0.752 0.298,-1.029 l -0.479,-0.164 c -0.216,0.327 -0.357,0.801 -0.357,1.299 0,1.21 0.836,1.505 1.64,1.505 h 1.498"
       style="fill:#100f0d;fill-opacity:1;fill-rule:nonzero;stroke:none"
       id="path688"
       inkscape:connector-curvature="0" /><path
       d="m 390.171,764.704 c -0.091,0 -0.215,-0.008 -0.306,-0.032 -0.463,-0.106 -0.844,-0.499 -0.844,-1.039 0,-0.743 0.662,-1.185 1.548,-1.185 0.811,0 1.481,0.393 1.481,1.169 0,0.483 -0.322,0.924 -0.869,1.055 -0.099,0.024 -0.198,0.032 -0.315,0.032 z m -3.501,0.719 h 4.842 c 0.356,0 0.762,0.009 1.035,0.033 v -0.645 l -0.695,-0.033 v -0.017 c 0.447,-0.22 0.786,-0.702 0.786,-1.348 0,-0.956 -0.819,-1.692 -2.036,-1.692 -1.333,-0.008 -2.153,0.809 -2.153,1.774 0,0.605 0.29,1.013 0.613,1.193 v 0.016 h -2.392 v 0.719"
       style="fill:#100f0d;fill-opacity:1;fill-rule:nonzero;stroke:none"
       id="path690"
       inkscape:connector-curvature="0" /><path
       d="m 392.399,771.169 c 0.099,-0.188 0.24,-0.605 0.24,-1.136 0,-1.194 -0.827,-1.97 -2.053,-1.97 -1.233,0 -2.127,0.834 -2.127,2.125 0,0.425 0.108,0.801 0.207,0.997 l 0.563,-0.163 c -0.1,-0.172 -0.191,-0.442 -0.191,-0.834 0,-0.908 0.679,-1.398 1.515,-1.398 0.928,0 1.498,0.589 1.498,1.373 0,0.409 -0.107,0.679 -0.198,0.883 l 0.546,0.123"
       style="fill:#100f0d;fill-opacity:1;fill-rule:nonzero;stroke:none"
       id="path692"
       inkscape:connector-curvature="0" /><path
       d="m 390.553,772.452 c 0.878,0 1.54,0.498 1.54,1.201 0,0.687 -0.654,1.202 -1.557,1.202 -0.678,0 -1.539,-0.335 -1.539,-1.185 0,-0.851 0.794,-1.218 1.556,-1.218 z m -0.041,3.138 c 1.481,0 2.127,-1.013 2.127,-1.969 0,-1.071 -0.794,-1.897 -2.061,-1.897 -1.341,0 -2.128,0.867 -2.128,1.962 0,1.136 0.836,1.904 2.062,1.904"
       style="fill:#100f0d;fill-opacity:1;fill-rule:nonzero;stroke:none"
       id="path694"
       inkscape:connector-curvature="0" /><path
       d="m 391.455,779.809 c 0.414,0 0.779,0.008 1.093,0.032 v -0.637 l -0.654,-0.041 v -0.016 c 0.323,-0.188 0.745,-0.605 0.745,-1.308 0,-0.622 -0.348,-1.365 -1.755,-1.365 h -2.343 v 0.719 h 2.219 c 0.762,0 1.274,0.229 1.274,0.883 0,0.482 -0.339,0.817 -0.662,0.948 -0.107,0.041 -0.239,0.065 -0.372,0.065 h -2.459 v 0.72 h 2.914"
       style="fill:#100f0d;fill-opacity:1;fill-rule:nonzero;stroke:none"
       id="path696"
       inkscape:connector-curvature="0" /><path
       d="m 389.626,781.002 c -0.414,0 -0.754,-0.008 -1.085,-0.033 v 0.638 l 0.663,0.041 v 0.016 c -0.381,0.196 -0.754,0.654 -0.754,1.308 0,0.548 0.331,1.398 1.705,1.398 h 2.393 v -0.72 h -2.31 c -0.645,0 -1.183,-0.237 -1.183,-0.915 0,-0.474 0.34,-0.842 0.745,-0.964 0.091,-0.033 0.215,-0.05 0.339,-0.05 h 2.409 v -0.719 h -2.922"
       style="fill:#100f0d;fill-opacity:1;fill-rule:nonzero;stroke:none"
       id="path698"
       inkscape:connector-curvature="0" /><path
       d="m 387.581,786.405 h 0.96 v 1.03 h 0.555 v -1.03 h 2.161 c 0.496,0 0.777,0.139 0.777,0.539 0,0.197 -0.015,0.311 -0.048,0.417 l 0.545,0.033 c 0.058,-0.139 0.108,-0.359 0.108,-0.638 0,-0.334 -0.115,-0.604 -0.315,-0.776 -0.214,-0.204 -0.571,-0.278 -1.043,-0.278 h -2.185 v -0.613 h -0.555 v 0.613 h -0.736 l -0.224,0.703"
       style="fill:#100f0d;fill-opacity:1;fill-rule:nonzero;stroke:none"
       id="path700"
       inkscape:connector-curvature="0" /><path
       style="fill:none;fill-opacity:1;fill-rule:evenodd;stroke:#808080;stroke-width:0.51975001;stroke-linecap:butt;stroke-linejoin:miter;stroke-miterlimit:4;stroke-dasharray:0.51975001,0.51975001;stroke-dashoffset:0;stroke-opacity:1"
       d="M 403.44707,725.03701 H 596.16393"
       id="path2619"
       inkscape:connector-curvature="0" /></g></svg>